<svg xmlns="http://www.w3.org/2000/svg" xmlns:xlink="http://www.w3.org/1999/xlink" xmlns:xodm="http://www.corel.com/coreldraw/odm/2003" width="23.3858in" height="5.10417in" style="shape-rendering:geometricPrecision; text-rendering:geometricPrecision; image-rendering:optimizeQuality; fill-rule:evenodd; clip-rule:evenodd" viewBox="0 0 23384.98 5103.99"><defs><style>.fil0 {fill:none}.fil1 {fill:#08083A}.fil2 {fill:#4C59FB}.fil3 {fill:#08083A;fill-rule:nonzero}</style></defs><g id="Layer_x0020_1"><g id="_2240540117104"><rect class="fil0" y="0" width="23384.98" height="5103.99"></rect><g><polygon class="fil1" points="546.83,507.05 4601.02,507.05 4601.02,1568.52 4981.79,1933.91 4981.79,126.28 166.06,126.28 166.06,4942.01 4981.79,4942.01 4981.79,3115.75 4601.02,3512.52 4601.02,4561.24 546.83,4561.24"></polygon><polygon class="fil2" points="4737.46,1957.58 5314.82,2511.64 4739.93,3110.7"></polygon><polygon class="fil1" points="2501.08,3413.92 1665.96,3414.9 1665.96,2552.73"></polygon><polygon class="fil1" points="3868.09,3834.26 1279.75,1236.64 2174.17,1234.04 3868.09,2951.08"></polygon><polygon class="fil1" points="3032.96,1235.02 3868.08,1234.04 3868.09,2096.2"></polygon><path class="fil3" d="M8006.86 4348.43v75.47h-66.04v-75.47h66.04zm268.9.0v75.47h-66.04v-75.47h66.04zm268.9.0v75.47h-66.04v-75.47h66.04zm462.29-263.38v57.4c-17.29-10.49-33.41-17.83-48.34-22.01-14.93-4.2-30.53-6.29-46.78-6.29-35.64.0-64.99 12.58-88.04 37.73-23.07 25.16-34.59 56.88-34.59 95.13.0 38.79 11.78 70.75 35.37 95.92 23.59 25.15 55.82 37.74 96.7 37.74 17.3.0 33.16-2.1 47.56-6.3 14.4-4.19 28.96-9.42 43.63-15.71v53.45c-32.49 12.58-65.52 18.88-99.06 18.88-55.03.0-98.66-17.3-130.89-51.89s-48.36-77.31-48.36-128.16c0-56.08 16.13-101.28 48.36-135.6 32.24-34.34 74.29-51.49 126.18-51.49 16.76.0 32.62 1.57 47.57 4.71 14.93 3.15 31.83 8.65 50.7 16.51zm443.44 17.3-29.1 46.38c-12.05-10.49-23.57-18.73-34.59-24.77-11-6.03-21.49-9.04-31.44-9.04-19.4.0-38.4 10.09-57 30.27-18.61 20.17-31.31 45.46-38.12 75.86v202.83h-53.47v-353h53.47v84.91c19.91-32.49 39.05-55.93 57.38-70.36 18.34-14.4 36.42-21.61 54.25-21.61 13.63.0 27.13 3.41 40.48 10.22 13.37 6.81 26.07 16.26 38.14 28.3zm437.14 286.95c-22.54 15.2-44.41 25.95-65.65 32.24-21.22 6.29-43.88 9.44-68 9.44-49.27.0-90.41-17.05-123.42-51.11-33.01-34.07-49.54-78.62-49.54-133.65.0-52.92 14.82-96.57 44.43-130.89 29.61-34.34 68.53-51.49 116.74-51.49 45.08.0 81.25 15.58 108.5 46.77 27.25 31.2 41.4 76.14 42.45 134.84h-257.07v5.49c0 35.64 11.52 66.17 34.59 91.59 23.05 25.42 53.19 38.14 90.39 38.14 23.07.0 45.21-3.8 66.44-11.41 21.22-7.59 41.27-18.46 60.14-32.62v52.67zm-47.96-177.67c-3.13-31.45-12.83-56.08-29.08-73.9-16.25-17.81-39.3-26.73-69.18-26.73-27.78.0-51.24 9.69-70.37 29.1-19.12 19.39-30.26 43.23-33.41 71.53h202.04zm467.79-36.94v194.96c0 10.49 3.68 15.73 11.02 15.73s21.22-7.87 41.66-23.59v40.1c-13.63 9.96-26.07 17.3-37.33 22.01-11.27 4.71-22.16 7.08-32.63 7.08-11.54.0-20.44-3.28-26.73-9.84-6.29-6.54-9.44-14.55-9.44-23.97v-9.44c-19.92 16.78-37.74 28.18-53.45 34.21-15.73 6.02-32.23 9.04-49.53 9.04-26.2.0-47.69-8.26-64.47-24.77-16.77-16.5-25.15-37.09-25.15-61.71.0-30.93 12.83-56.08 38.52-75.49 25.67-19.39 77.04-38.25 154.08-56.6v-27.51c0-25.17-5.38-43.25-16.11-54.25-10.74-11.02-28.7-16.51-53.87-16.51-22.01.0-41.78 4.59-59.36 13.76-17.56 9.17-34.97 22.66-52.27 40.49v-58.18c29.35-30.93 68.13-46.38 116.36-46.38 39.3.0 68.91 9.82 88.84 29.48 19.91 19.66 29.86 46.78 29.86 81.37zm-132.07 216.98c12.57.0 25.02-2.76 37.34-8.26 12.32-5.49 26.07-15.58 41.28-30.26v-110.06c-43.51 8.37-77.44 19.91-101.81 34.59-24.37 14.68-36.55 34.07-36.55 58.16.0 15.73 5.49 28.97 16.51 39.72 11 10.74 25.42 16.11 43.23 16.11zm310.56-320.76h68.4v-77.82l53.47-30.66v108.48H10717v47.96h-109.28v188.67c0 26.74 3.79 45.86 11.4 57.4 7.59 11.53 20.82 17.29 39.7 17.29 13.1.0 25.95-2.08 38.52-6.29 12.57-4.18 24.37-9.69 35.37-16.51v50.32c-12.05 7.34-25.55 12.7-40.48 16.11-14.94 3.41-28.43 5.13-40.49 5.13-34.59.0-59.49-9.44-74.69-28.32-15.2-18.86-22.79-50.57-22.79-95.13v-188.67h-68.4v-47.96zm426.92.0h53.45v353h-53.45v-353zm53.45-140.72v68.4h-53.45v-68.4h53.45zm228.8 140.72 107.7 252.36 105.36-252.36h57.38l-153.31 361.64h-18.86l-156.45-361.64h58.18zm712.29 318.4c-22.54 15.2-44.41 25.95-65.64 32.24-21.22 6.29-43.88 9.44-68 9.44-49.27.0-90.41-17.05-123.42-51.11-33.01-34.07-49.54-78.62-49.54-133.65.0-52.92 14.82-96.57 44.43-130.89 29.61-34.34 68.53-51.49 116.74-51.49 45.08.0 81.25 15.58 108.5 46.77 27.25 31.2 41.4 76.14 42.45 134.84h-257.07v5.49c0 35.64 11.52 66.17 34.59 91.59 23.05 25.42 53.19 38.14 90.39 38.14 23.07.0 45.21-3.8 66.44-11.41 21.22-7.59 41.27-18.46 60.14-32.62v52.67zm-47.96-177.67c-3.13-31.45-12.83-56.08-29.08-73.9-16.25-17.81-39.3-26.73-69.18-26.73-27.78.0-51.24 9.69-70.37 29.1-19.12 19.39-30.26 43.23-33.41 71.53h202.04zm753.17 47.96c12.06-14.15 23.06-30.15 33.03-47.96 9.95-17.83 18.87-35.89 26.73-54.25h58.18c-7.86 23.07-18.48 46.51-31.83 70.36-13.37 23.86-30.01 48.09-49.94 72.73l14.15 15.73c4.2 5.24 8.66 10.22 13.37 14.93l84.91 92.77h-75.47l-75.48-82.55c-30.91 30.93-60.79 53.6-89.61 68-28.83 14.42-57.38 21.63-85.69 21.63-37.74.0-70.25-11.94-97.5-35.79-27.25-23.84-40.88-53.85-40.88-90.01.0-29.35 10.49-56.99 31.46-82.93 20.96-25.94 54.76-52.29 101.41-79.01-23.59-23.59-41.28-46.26-53.07-68-11.79-21.74-17.68-43.9-17.68-66.43.0-28.83 11-55.43 33.01-79.8 22.01-24.37 53.99-36.56 95.92-36.56 39.83.0 71.41 11.4 94.72 34.19 23.32 22.81 34.99 50.19 34.99 82.17.0 29.34-9.44 55.43-28.3 78.22-18.88 22.79-44.56 44.41-77.04 64.85l100.62 107.72zm-149.36-77.84-36.17 23.59c-23.59 15.73-41.27 31.18-53.07 46.38-11.79 15.2-17.96 31.44-18.48 48.74.0 19.39 6.68 36.16 20.05 50.32 13.36 14.15 34.19 22.01 62.49 23.57l3.93.8c18.34.0 38.27-5.11 59.75-15.33 21.49-10.22 45.59-29.75 72.32-58.58l-110.83-119.5zm15.71-69.18c29.88-17.83 51.11-34.72 63.69-50.71 12.58-15.98 18.87-32.88 18.87-50.7.0-19.91-6.81-36.29-20.44-49.14-13.63-12.85-31.44-19.26-53.45-19.26-19.93.0-36.82 5.89-50.71 17.68-13.88 11.79-20.84 26.87-20.84 45.2.0 14.68 4.73 30.4 14.15 47.17 9.44 16.77 25.69 36.69 48.74 59.75zm6154.36-27.52v57.4c-17.29-10.49-33.41-17.83-48.34-22.01-14.93-4.2-30.53-6.29-46.78-6.29-35.64.0-64.99 12.58-88.04 37.73-23.07 25.16-34.59 56.88-34.59 95.13.0 38.79 11.78 70.75 35.37 95.92 23.59 25.15 55.82 37.74 96.7 37.74 17.3.0 33.16-2.1 47.56-6.3 14.4-4.19 28.96-9.42 43.63-15.71v53.45c-32.49 12.58-65.52 18.88-99.06 18.88-55.03.0-98.66-17.3-130.89-51.89s-48.36-77.31-48.36-128.16c0-56.08 16.13-101.28 48.36-135.6 32.24-34.34 74.29-51.49 126.18-51.49 16.76.0 32.62 1.57 47.57 4.71 14.93 3.15 31.83 8.65 50.7 16.51zm363.25-21.22c51.89.0 95.39 17.29 130.51 51.89 35.11 34.59 52.67 78.6 52.67 132.07.0 53.98-18.08 98-54.25 132.07-36.17 34.06-79.67 51.11-130.51 51.11-53.45.0-97.48-17.83-132.07-53.47s-51.89-78.09-51.89-127.36c0-52.93 17.03-97.22 51.11-132.87 34.06-35.64 78.87-53.45 134.42-53.45zm-.78 319.18c38.25.0 69.3-13.1 93.15-39.32 23.86-26.2 35.78-58.43 35.78-96.7.0-39.83-12.32-72.32-36.96-97.48-24.63-25.15-56.33-37.73-95.13-37.73-36.16.0-66.3 12.7-90.39 38.12-24.12 25.42-36.17 58.03-36.17 97.88.0 39.83 12.05 72.33 36.17 97.48 24.1 25.16 55.28 37.74 93.55 37.74zm652.54-248.43c22.01-25.16 42.05-43.25 60.14-54.25s38.14-16.51 60.16-16.51c38.25.0 67.35 12.05 87.26 36.16 19.91 24.1 29.88 58.43 29.88 102.99v220.91h-53.47v-215.42c0-65.5-27-98.26-80.97-98.26-16.25.0-32.36 4.84-48.34 14.53-16 9.71-30.8 24.24-44.42 43.65v255.5h-52.68v-216.98c0-64.99-25.67-97.5-77.04-97.5-19.91.0-37.87 5.11-53.85 15.33-15.98 10.24-30.53 24.24-43.63 42.07v257.07h-52.67v-353h52.67v53.47c17.29-19.91 35.11-34.99 53.45-45.21 18.35-10.22 38.27-15.33 59.76-15.33 23.57.0 44.54 5.76 62.89 17.29 18.34 11.54 31.96 29.35 40.88 53.47zm455.22-63.69h132.85c57.13.0 102.46 15.73 136.01 47.18 33.54 31.44 50.32 74.41 50.32 128.92.0 52.42-16.65 96.17-49.94 131.29-33.27 35.11-75.07 52.69-125.38 52.69-18.87.0-34.34-1.58-46.39-4.73-12.05-3.14-26.72-8.91-44.03-17.29v195.74h-53.45v-533.8zm53.45 290.88c26.2 14.68 54.5 22.01 84.91 22.01 37.22.0 67.47-12.85 90.81-38.52 23.32-25.68 34.97-58.43 34.97-98.28.0-40.88-11.65-72.59-34.97-95.13-23.33-22.52-56.22-33.79-98.67-33.79h-77.04v243.7zm682.41-187.1v194.96c0 10.49 3.68 15.73 11.02 15.73s21.22-7.87 41.66-23.59v40.1c-13.63 9.96-26.07 17.3-37.33 22.01-11.27 4.71-22.16 7.08-32.63 7.08-11.54.0-20.44-3.28-26.73-9.84-6.29-6.54-9.44-14.55-9.44-23.97v-9.44c-19.92 16.78-37.74 28.18-53.45 34.21-15.72 6.02-32.23 9.04-49.53 9.04-26.2.0-47.69-8.26-64.47-24.77-16.77-16.5-25.15-37.09-25.15-61.71.0-30.93 12.83-56.08 38.52-75.49 25.68-19.39 77.04-38.25 154.08-56.6v-27.51c0-25.17-5.38-43.25-16.11-54.25-10.74-11.02-28.7-16.51-53.87-16.51-22.01.0-41.78 4.59-59.36 13.76-17.56 9.17-34.97 22.66-52.27 40.49v-58.18c29.35-30.93 68.13-46.38 116.36-46.38 39.3.0 68.91 9.82 88.84 29.48 19.91 19.66 29.86 46.78 29.86 81.37zm-132.07 216.98c12.57.0 25.02-2.76 37.34-8.26 12.32-5.49 26.07-15.58 41.28-30.26v-110.06c-43.51 8.37-77.44 19.91-101.81 34.59-24.37 14.68-36.55 34.07-36.55 58.16.0 15.73 5.49 28.97 16.51 39.72 11 10.74 25.42 16.11 43.23 16.11zm656.47-182.39v214.62h-54.25v-212.27c0-37.22-7.59-63.69-22.79-79.39-15.2-15.73-35.37-23.59-60.53-23.59-19.92.0-38.4 5.51-55.43 16.51-17.03 11.02-31.58 25.95-43.63 44.81v253.94h-53.45v-353h53.45v52.67c15.2-19.91 33.41-34.85 54.65-44.81 21.22-9.95 41.53-14.93 60.92-14.93 39.85.0 69.98 12.97 90.41 38.92 20.44 25.93 30.66 61.44 30.66 106.52zm215.44-138.37 110.85 221.7 105.34-221.7h58.16l-256.28 533.8h-57.4l121.07-252.35-142.29-281.46h60.53zm-8331.39-100.62h6.29v87.26h117.93v73.11h-117.93v154.88c0 24.63 4.2 41.93 12.59 51.88 8.37 9.96 21.49 14.95 39.3 14.95 14.68.0 28.96-2.5 42.85-7.48 13.88-4.97 26.85-11.13 38.92-18.46v78.62c-14.68 8.37-31.71 14.8-51.11 19.26-19.39 4.46-36.94 6.68-52.67 6.68-40.88.0-71.41-10.89-91.59-32.63-20.17-21.76-30.26-56.47-30.26-104.17v-163.53h-61.32v-12.57l147-147.8zm652.71 271.23v14.15h-257.07c3.15 30.39 14.95 54.9 35.38 73.51 20.44 18.59 46.38 27.9 77.82 27.9 23.59.0 46.91-3.68 69.97-11.02 23.07-7.32 45.08-17.56 66.04-30.66v73.9c-23.59 14.68-47.57 25.29-71.93 31.84-24.38 6.56-50.98 9.84-79.8 9.84-56.09.0-101.95-17.83-137.59-53.47s-53.45-82.02-53.45-139.15c0-56.08 16.9-101.41 50.71-136 33.79-34.59 77.95-51.89 132.47-51.89 48.74.0 88.84 17.03 120.28 51.11 31.45 34.07 47.16 80.71 47.16 139.94zm-88.82-36.17c-1.05-26.72-8.54-47.69-22.41-62.89-13.9-15.2-33.41-22.81-58.58-22.81-24.63.0-45.06 8.01-61.31 23.99s-24.9 36.55-25.95 61.71h168.25zm563.87-130.51v85.7c-18.88-11.02-36.57-18.61-53.07-22.81-16.51-4.19-32.36-6.29-47.56-6.29-30.4.0-55.16 10.49-74.29 31.46-19.13 20.96-28.7 46.64-28.7 77.04.0 31.96 9.96 58.43 29.88 79.4 19.91 20.96 47.16 31.46 81.75 31.46 16.78.0 33.03-2.1 48.74-6.29 15.73-4.2 32.5-9.96 50.32-17.3v81.77c-19.91 7.34-38.78 12.83-56.6 16.51-17.81 3.66-36.42 5.51-55.81 5.51-60.28.0-107.57-17.83-141.91-53.47-34.33-35.64-51.49-80.19-51.49-133.64.0-57.66 17.3-104.29 51.89-139.93 34.59-35.64 79.93-53.47 136-53.47 18.34.0 36.04 1.83 53.07 5.51 17.03 3.66 36.29 9.96 57.79 18.87zm547.37 121.87v227.2h-91.97v-219.35c0-52.93-21.49-79.4-64.47-79.4-16.25.0-31.05 3.93-44.42 11.79-13.36 7.87-27.65 21.49-42.84 40.88v246.07h-91.99v-536.16h91.99v219.33c33.01-37.72 72.32-56.6 117.92-56.6 40.88.0 72.06 12.72 93.55 38.14s32.24 61.44 32.24 108.1zm549.72 4.71v222.48h-91.97v-213.05c0-32.5-6.56-54.9-19.66-67.22-13.1-12.32-29.08-18.48-47.96-18.48-32.49.0-60.53 17.83-84.11 53.47v245.28h-91.99v-366.35h91.99v48.74c17.29-19.39 36.16-33.54 56.6-42.45 20.44-8.92 40.61-13.37 60.54-13.37 42.45.0 74.16 13.63 95.13 40.88 20.96 27.27 31.44 63.94 31.44 110.07zm593.75 39.3c0 58.18-19.39 104.43-58.18 138.77-38.77 34.32-86.48 51.49-143.09 51.49-59.74.0-107.83-18.23-144.25-54.65-36.44-36.42-54.65-81.1-54.65-134.04.0-55.55 18.09-101.41 54.25-137.58s84.91-54.25 146.22-54.25c60.28.0 108.63 17.83 145.05 53.47 36.44 35.64 54.64 81.23 54.64 136.78zm-305.03.0c0 36.16 9.82 64.21 29.48 84.12s44.95 29.88 75.86 29.88c31.46.0 56.6-10.49 75.49-31.45 18.86-20.96 28.3-48.47 28.3-82.55.0-35.12-9.84-62.89-29.5-83.33-19.64-20.44-45.46-30.66-77.42-30.66-29.88.0-54.38 10.09-73.51 30.26-19.13 20.18-28.7 48.09-28.7 83.73zm593.77-352.98v536.16h-91.99v-536.16h91.99zm596.89 352.98c0 58.18-19.39 104.43-58.18 138.77-38.78 34.32-86.48 51.49-143.09 51.49-59.74.0-107.83-18.23-144.25-54.65-36.44-36.42-54.65-81.1-54.65-134.04.0-55.55 18.08-101.41 54.25-137.58s84.91-54.25 146.22-54.25c60.28.0 108.62 17.83 145.04 53.47 36.44 35.64 54.65 81.23 54.65 136.78zm-305.03.0c0 36.16 9.82 64.21 29.48 84.12s44.95 29.88 75.86 29.88c31.46.0 56.6-10.49 75.48-31.45 18.86-20.96 28.3-48.47 28.3-82.55.0-35.12-9.84-62.89-29.5-83.33-19.64-20.44-45.46-30.66-77.43-30.66-29.88.0-54.37 10.09-73.51 30.26-19.13 20.18-28.7 48.09-28.7 83.73zm817.81-118.7h-70.75c13.11 10.47 22.54 22.27 28.3 35.37 5.78 13.1 8.66 27 8.66 41.67.0 34.59-12.19 62.1-36.56 82.55-24.37 20.44-55.16 32.88-92.37 37.34-37.22 4.44-55.82 14.28-55.82 29.48.0 16.24 24.64 27.65 73.91 34.19 49.27 6.56 84.78 18.87 106.52 36.95 21.76 18.08 32.63 42.07 32.63 71.93.0 37.74-15.73 66.44-47.18 86.1-31.44 19.64-74.94 29.48-130.5 29.48-59.23.0-103.26-9.97-132.07-29.88-28.83-19.91-43.25-45.08-43.25-75.47.0-21.49 6.42-40.62 19.26-57.4 12.85-16.78 36.56-28.83 71.15-36.16-11.02-5.76-19.66-12.7-25.94-20.84-6.29-8.12-9.44-16.63-9.44-25.55.0-13.1 4.73-24.63 14.15-34.59 9.44-9.95 23.85-17.29 43.25-22.01-29.88-11-51.89-26.73-66.04-47.16-14.15-20.44-21.22-43.23-21.22-68.4.0-40.35 14.53-72.46 43.63-96.3 29.08-23.85 71.14-35.77 126.18-35.77h163.51v64.47zm-184.74 133.64c19.91.0 36.42-5.91 49.53-17.68 13.1-11.79 19.64-27.92 19.64-48.36.0-17.81-6.42-32.89-19.26-45.21-12.83-12.32-29.21-18.46-49.14-18.46-20.96.0-37.6 6.67-49.92 20.04-12.3 13.37-18.46 28.7-18.46 45.99.0 19.91 6.81 35.51 20.44 46.78 13.63 11.27 29.35 16.9 47.17 16.9zm3.93 291.66c29.88.0 53.07-4.18 69.58-12.57 16.5-8.39 24.77-20.71 24.77-36.95.0-16.77-9.7-29.5-29.1-38.14-19.39-8.65-45.07-12.98-77.04-12.98-24.1.0-44.03 4.06-59.74 12.2-15.73 8.12-23.59 20.83-23.59 38.12.0 16.78 8.12 29.35 24.37 37.74 16.25 8.39 39.83 12.57 70.75 12.57zm433.38-489.77 91.97 198.11 91.21-198.11h94.33l-255.5 546.38h-95.12l116.34-247.63-144.64-298.75h101.41z"></path><path class="fil3" d="M10283.42 2717.32c0 219.98-72.52 397.61-217.55 532.91-145.03 135.29-337.26 202.93-576.7 202.93-241.4.0-433.63-68.13-576.7-204.4-143.09-136.27-214.62-312.45-214.62-528.52.0-219.98 71.54-397.61 214.62-532.91 143.07-135.3 336.28-202.93 579.61-202.93 245.29.0 438.49 68.13 579.63 204.4 141.13 136.26 211.71 312.44 211.71 528.52zm-1127.14.0c0 124.59 30.18 221.93 90.52 292.01 60.34 70.07 142.11 105.11 245.27 105.11 105.12.0 187.37-35.51 246.74-106.57 59.38-71.06 89.06-167.9 89.06-290.55.0-128.47-31.63-226.3-94.9-293.46-63.26-67.16-145.5-100.74-246.74-100.74-99.28.0-179.09 34.56-239.44 103.66-60.34 69.12-90.52 165.96-90.52 290.55z"></path><polygon class="fil3" points="11101.03,1435.42 11101.03,3015.16 12003.31,3015.16 12003.31,3426.88 10598.77,3426.88 10598.77,1435.42"></polygon><path class="fil3" d="M12688.19 1794.59h-436.29v-278.87l437.74-1.46-1.45 280.33zm1.32 216.08v1416.21h-438V2010.67h438z"></path><path class="fil3" d="M14388.98 2255.95c85.65-97.34 169.84-166.93 252.59-208.78 82.73-41.86 172.75-62.78 270.09-62.78 163.53.0 287.14 48.66 370.85 145.99 83.7 97.34 125.56 238.47 125.56 423.4v873.09h-435.1v-794.25c0-99.28-18.98-174.71-56.94-226.3-37.95-51.59-94.9-77.38-170.81-77.38-110.96.0-214.15 70.09-309.52 210.24v887.69h-435.08v-788.41c0-105.12-18.02-182.99-54.03-233.59-36.02-50.62-93.93-75.93-173.74-75.93-48.66.0-97.34 13.63-146 40.88-48.68 27.25-103.18 83.71-163.52 169.37v887.69h-435.08V2010.67h435.08v198.56c73.97-75.93 146.97-132.37 219-169.37 72.03-36.99 157.68-55.47 256.96-55.47 107.08.0 199.54 23.35 277.4 70.07 77.87 46.72 135.3 113.89 172.29 201.49z"></path><path class="fil3" d="M16168.21 1794.59h-435.64v-278.87l437.09-1.46-1.45 280.33zm1.98 216.08v1416.21h-438V2010.67h438z"></path><path class="fil3" d="M16987.81 1622.31h43.79v417.56h467.2v315.37h-467.2v502.24c0 73.99 12.66 131.9 37.97 173.74 25.31 41.86 78.84 62.78 160.59 62.78 56.46.0 110.49-9.72 162.08-29.19 51.57-19.47 102.69-42.84 153.29-70.09v353.33c-72.02 36.99-147.46 63.75-226.3 80.3-78.84 16.54-151.34 24.81-217.53 24.81-179.09.0-308.55-44.77-388.36-134.31-79.81-89.55-119.72-219.98-119.72-391.29v-572.33h-230.68v-102.19l624.89-630.73z"></path><path class="fil3" d="M18339.77 1435.42c184.93.0 333.86 45.27 446.76 135.78 112.91 90.52 169.37 214.62 169.37 372.3.0 107.08-28.22 197.59-84.68 271.58-56.45 73.97-138.22 129.44-245.28 166.43 157.68 23.37 280.31 82.25 367.92 176.66 87.6 94.43 131.4 205.87 131.4 334.35.0 165.47-63.75 295.9-191.27 391.28-127.5 95.39-294.43 143.09-500.77 143.09h-607.38V1435.43h513.92zm-297.84 884.78h219c163.53.0 282.27-33.59 356.26-100.74 73.97-67.16 110.95-152.34 110.95-255.5.0-118.75-35.53-204.42-106.57-256.98-71.06-52.56-179.58-78.82-325.58-78.82h-254.05v692.04zm350.4 913.97c159.64.0 283.73-28.24 372.3-84.68 88.58-56.46 132.87-147.96 132.87-274.49.0-116.81-42.34-206.84-127.02-270.1-84.69-63.27-221.43-94.9-410.27-94.9h-318.28v724.17h350.4z"></path><path class="fil3" d="M19604.14 2115.8v785.48c0 132.37 26.77 229.71 80.3 292 53.53 62.3 129.94 93.45 229.22 93.45 73.99.0 142.61-20.44 205.87-61.33 63.27-40.88 117.28-96.35 162.06-166.43v-943.16h201.48V3426.9h-201.48v-195.65c-56.45 68.14-123.13 122.15-200.02 162.06-76.88 39.9-152.32 59.86-226.3 59.86-151.84.0-264.75-49.64-338.72-148.92s-110.96-240.41-110.96-423.4v-765.04h198.56z"></path><polygon class="fil3" points="21814.62,2115.8 21814.62,2130.39 21052.49,3242.92 21826.28,3242.92 21826.28,3426.88 20713.76,3426.88 20713.76,3412.29 21467.13,2299.76 20737.12,2299.76 20737.12,2115.8"></polygon><polygon class="fil3" points="23070.23,2115.8 23070.23,2130.39 22308.1,3242.92 23081.9,3242.92 23081.9,3426.88 21969.37,3426.88 21969.37,3412.29 22722.74,2299.76 21992.74,2299.76 21992.74,2115.8"></polygon><polygon class="fil1" points="6713.57,1269.83 7884.93,2365.02 7880.26,1425.95 8402.59,1425.95 8403.29,3593.16 7237.85,2507.58 7236.32,3425.93 6712.4,3425.93"></polygon></g></g></g></svg>